<svg width="70" height="23" viewBox="0 0 70 23" fill="none" xmlns="http://www.w3.org/2000/svg">
<path fill-rule="evenodd" clip-rule="evenodd" d="M35 17.8675C38.4934 17.8675 41.3253 15.0355 41.3253 11.5422C41.3253 8.04879 38.4934 5.21686 35 5.21686C31.5066 5.21686 28.6747 8.04879 28.6747 11.5422C28.6747 15.0355 31.5066 17.8675 35 17.8675Z" fill="#00A031"/>
<path fill-rule="evenodd" clip-rule="evenodd" d="M63.6747 18.7108C67.1681 18.7108 70 15.8789 70 12.3855C70 8.89218 67.1681 6.06024 63.6747 6.06024C60.1813 6.06024 57.3494 8.89218 57.3494 12.3855C57.3494 15.8789 60.1813 18.7108 63.6747 18.7108Z" fill="white"/>
<path fill-rule="evenodd" clip-rule="evenodd" d="M6.3253 18.7108C9.81867 18.7108 12.6506 15.8789 12.6506 12.3855C12.6506 8.89218 9.81867 6.06024 6.3253 6.06024C2.83193 6.06024 0 8.89218 0 12.3855C0 15.8789 2.83193 18.7108 6.3253 18.7108Z" fill="white"/>
<path fill-rule="evenodd" clip-rule="evenodd" d="M35 22.0843C40.8223 22.0843 45.5422 17.3644 45.5422 11.5422C45.5422 5.71989 40.8223 1 35 1C29.1777 1 24.4578 5.71989 24.4578 11.5422C24.4578 17.3644 29.1777 22.0843 35 22.0843Z" stroke="#00A031"/>
</svg>
